<svg id="visual" viewBox="0 0 900 600" width="900" height="600" xmlns="http://www.w3.org/2000/svg" xmlns:xlink="http://www.w3.org/1999/xlink" version="1.1"><rect x="0" y="0" width="900" height="600" fill="#ffffff"></rect><path d="M308 0L300.5 25C293 50 278 100 252.3 150C226.7 200 190.3 250 189.5 300C188.7 350 223.3 400 248.8 450C274.3 500 290.7 550 298.8 575L307 600L0 600L0 575C0 550 0 500 0 450C0 400 0 350 0 300C0 250 0 200 0 150C0 100 0 50 0 25L0 0Z" fill="#b2b2b2" stroke-linecap="round" stroke-linejoin="miter"></path></svg>