<svg id="visual" viewBox="0 0 900 600" width="900" height="600" xmlns="http://www.w3.org/2000/svg" xmlns:xlink="http://www.w3.org/1999/xlink" version="1.1"><rect x="0" y="0" width="900" height="600" fill="#ffffff"></rect><path d="M590 600L614.3 575C638.7 550 687.3 500 689.8 450C692.3 400 648.7 350 625.2 300C601.7 250 598.3 200 609.2 150C620 100 645 50 657.5 25L670 0L900 0L900 25C900 50 900 100 900 150C900 200 900 250 900 300C900 350 900 400 900 450C900 500 900 550 900 575L900 600Z" fill="#88fff3" stroke-linecap="round" stroke-linejoin="miter"></path></svg>