<svg id="visual" viewBox="0 0 900 600" width="900" height="600" xmlns="http://www.w3.org/2000/svg" xmlns:xlink="http://www.w3.org/1999/xlink" version="1.1"><rect x="0" y="0" width="900" height="600" fill="#ffffff"></rect><path d="M669 600L665 575C661 550 653 500 655.2 450C657.3 400 669.7 350 688.3 300C707 250 732 200 728.8 150C725.7 100 694.3 50 678.7 25L663 0L900 0L900 25C900 50 900 100 900 150C900 200 900 250 900 300C900 350 900 400 900 450C900 500 900 550 900 575L900 600Z" fill="#88fff3" stroke-linecap="round" stroke-linejoin="miter"></path></svg>