<svg id="visual" viewBox="0 0 900 600" width="900" height="600" xmlns="http://www.w3.org/2000/svg" xmlns:xlink="http://www.w3.org/1999/xlink" version="1.1"><rect x="0" y="0" width="900" height="600" fill="#ffffff"></rect><path d="M472 0L468.5 25C465 50 458 100 406 150C354 200 257 250 231.7 300C206.3 350 252.7 400 258.7 450C264.7 500 230.3 550 213.2 575L196 600L0 600L0 575C0 550 0 500 0 450C0 400 0 350 0 300C0 250 0 200 0 150C0 100 0 50 0 25L0 0Z" fill="#d7d7d7" stroke-linecap="round" stroke-linejoin="miter"></path></svg>