<svg id="visual" viewBox="0 0 900 600" width="900" height="600" xmlns="http://www.w3.org/2000/svg" xmlns:xlink="http://www.w3.org/1999/xlink" version="1.1"><rect x="0" y="0" width="900" height="600" fill="#ffffff"></rect><path d="M433 0L386.2 25C339.3 50 245.7 100 213.7 150C181.7 200 211.3 250 209.2 300C207 350 173 400 168.3 450C163.7 500 188.3 550 200.7 575L213 600L0 600L0 575C0 550 0 500 0 450C0 400 0 350 0 300C0 250 0 200 0 150C0 100 0 50 0 25L0 0Z" fill="#d7d7d7" stroke-linecap="round" stroke-linejoin="miter"></path></svg>